<svg width="107" height="103" viewBox="0 0 107 103" fill="none" xmlns="http://www.w3.org/2000/svg">
<path d="M56.6702 100.162C84.4389 100.162 106.95 77.7402 106.95 50.0811C106.95 22.4221 84.4389 0 56.6702 0C28.9016 0 6.39062 22.4221 6.39062 50.0811C6.39062 77.7402 28.9016 100.162 56.6702 100.162Z" fill="#091B36"/>
<path d="M6.39062 50.0811C6.39062 22.4202 28.8997 0 56.6702 0C75.1241 0 91.2551 9.9063 100.007 24.6699C104.422 32.122 106.95 40.8139 106.95 50.0939C106.95 77.7548 84.4408 100.175 56.6702 100.175C28.8997 100.175 6.39062 77.7548 6.39062 50.0939V50.0811Z" fill="#D60007"/>
<path d="M40.1672 10.8394C17.979 10.8394 0 28.7602 0 50.8608C0 72.9614 17.979 90.8695 40.1672 90.8695C62.3554 90.8695 80.3473 72.9487 80.3473 50.8608C80.3473 28.773 62.3554 10.8521 40.1672 10.8521V10.8394ZM48.7782 80.1067C40.7319 82.1391 32.9551 81.4105 25.6146 77.3586C24.9858 77.0134 24.3313 76.7066 23.6768 76.3871V76.0164C36.8692 77.0901 48.4317 73.2299 58.5056 64.7807C57.5687 65.1386 56.5934 65.4199 55.708 65.8672C50.7288 68.3342 45.4544 69.5102 39.9106 69.6764C34.0844 69.8553 28.3096 69.5997 22.8684 67.2222C18.3897 65.2665 13.9879 63.0935 11.216 58.7858C10.4589 57.6099 9.91989 56.2933 9.32958 55.0278C9.18841 54.7338 9.25258 54.3632 9.20125 53.8902C32.3519 63.1574 52.6794 58.9137 70.5172 42.2327C70.4787 42.0921 70.4402 41.9515 70.4017 41.8109C70.1451 41.9515 69.8756 42.0666 69.6446 42.2327C55.0663 52.8037 39.2048 54.3632 22.4577 48.5983C19.8526 47.7036 17.4785 45.978 15.2199 44.3162C12.3453 42.1944 10.9594 39.28 11.9475 35.4453C12.3453 35.5987 12.8073 35.7265 13.2051 35.9438C18.21 38.6537 23.433 40.6861 29.1437 41.2996C35.6757 42.0027 41.8098 40.6605 47.713 37.9123C51.8837 35.9694 55.246 33.0039 58.4671 29.8594C58.7109 29.6166 58.8777 29.3098 59.0189 28.9391C55.1818 31.8024 50.8314 33.4641 46.2116 34.2949C40.8345 35.2664 35.4832 35.0107 30.3885 32.7738C27.8732 31.6745 25.7301 30.064 24.2287 27.7504C22.7272 25.424 23.1122 23.4683 25.3195 21.8194C27.8219 19.9531 30.7607 19.084 33.7636 18.5087C45.3133 16.2846 55.477 19.1351 63.6644 27.5458C70.1964 34.2566 72.8272 42.5779 72.301 51.9729C71.5439 65.5221 60.8797 77.0646 48.7653 80.1195L48.7782 80.1067Z" fill="#091B36"/>
<path d="M94.8998 80.2092C99.3528 101.147 99.648 103 99.648 103L78.2554 94.7044" fill="#D60007"/>
</svg>
